<svg width="304" height="236" viewBox="0 0 304 236" fill="none" xmlns="http://www.w3.org/2000/svg">
<g clip-path="url(#clip0_154_61)">
<path d="M241.503 35.7605C243.537 34.469 246.173 35.974 247.391 39.122C248.087 40.9211 248.167 42.8659 247.73 44.4446L247.758 44.5162L255.75 62.7438L270.052 53.1106C272.733 50.9944 275.963 50.4244 277.83 53.673C280.144 57.6984 278.924 63.4356 275.336 65.4008L256.674 75.6225C254.023 77.0746 250.955 75.4948 249.826 72.0958L243.128 47.3676C241.882 46.8571 240.723 45.5981 240.027 43.7989C238.809 40.6509 239.47 37.052 241.503 35.7605Z" fill="#9B616A"/>
<path d="M275.96 47.6543L259.48 58.1599L265.724 73.6651L282.313 61.1088" fill="#CACACB"/>
<path d="M257.904 217.596H251.725V228.031H257.904V217.596Z" fill="#9B616A"/>
<path d="M256.85 235.233H243.714C242.591 235.233 241.463 234.903 240.451 234.28L238.029 232.789C237.529 232.481 237.205 231.821 237.205 231.11C237.205 230.275 237.644 229.537 238.272 229.314L243.268 227.543L251.815 221.787L251.821 221.829C251.981 222.866 252.228 224.433 252.26 224.528C253.136 225.814 254.037 226.407 254.936 226.29C256.505 226.086 257.548 223.766 257.558 223.742L257.566 223.724L257.582 223.727C257.949 223.775 258.221 223.965 258.389 224.291C258.747 224.982 258.529 226.046 258.493 226.207C258.922 226.744 259.114 229.744 259.129 229.986C259.748 230.828 260.043 231.637 260.004 232.391C259.97 233.05 259.684 233.662 259.156 234.21C258.52 234.87 257.701 235.233 256.85 235.233Z" fill="#090814"/>
<path d="M298.662 212.837L292.729 215.049L295.004 225.068L300.937 222.857L298.662 212.837Z" fill="#9B616A"/>
<path d="M301.495 230.149L288.882 234.85C287.804 235.252 286.648 235.339 285.541 235.103L282.89 234.538C282.342 234.421 281.888 233.904 281.733 233.22C281.551 232.419 281.811 231.553 282.365 231.114L286.776 227.626L293.728 219.041L293.743 219.078C294.123 220.017 294.702 221.433 294.753 221.513C295.875 222.434 296.869 222.681 297.707 222.247C299.169 221.49 299.664 218.889 299.669 218.863L299.673 218.843L299.689 218.839C300.052 218.754 300.354 218.839 300.587 219.092C301.082 219.627 301.104 220.728 301.105 220.895C301.633 221.257 302.472 224.069 302.539 224.296C303.317 224.882 303.776 225.553 303.903 226.291C304.014 226.936 303.874 227.626 303.486 228.342C303.019 229.203 302.312 229.845 301.495 230.149Z" fill="#090814"/>
<path d="M281.064 30.067C281.064 22.9586 276.566 17.196 271.018 17.196C265.469 17.196 260.971 22.9586 260.971 30.067C260.971 35.832 263.93 40.7111 268.008 42.3497L269.95 58.7936L279.851 48.2233C279.851 48.2233 277.712 44.7329 276.565 40.7973C279.276 38.4923 281.064 34.548 281.064 30.067Z" fill="#9B616A"/>
<path d="M285.028 93.5927L286.479 67.5812C286.604 65.3254 286.382 63.0599 285.824 60.9145L281.526 44.3977L268.867 49.6068L263.526 65.2625L260.616 72.0953C259.292 75.206 259.726 79.0626 261.681 81.5681L263.526 83.9311L260.954 96.0105L261.225 95.9982L260.861 96.058C260.861 96.058 243.676 162.301 244.291 218.637H266.351L267.661 153.24L271.493 221.175L300.564 219.031L285.028 93.5927Z" fill="#CACACB"/>
<path d="M284.29 46.9783C284.29 46.9783 283.821 51.5383 279.475 51.6872C273.597 51.8886 270.658 51.9893 270.658 51.9893C270.658 51.9893 278.111 28.751 275.046 31.3689C271.982 33.9869 263.809 23.0116 263.809 23.0116L261.397 28.8057C261.397 28.8057 255.636 26.133 262.021 19.5881C262.021 19.5881 269.639 12.0426 277.727 16.5737C285.814 21.1048 284.29 46.9783 284.29 46.9783Z" fill="#090814"/>
<path d="M248.635 98.7204C248.517 95.8165 250.643 93.3154 253.382 93.1341C254.947 93.0305 256.372 93.7091 257.329 94.8499L257.391 94.8457L273.623 92.6921L272.405 72.0503C271.955 68.0574 272.83 64.0336 275.899 63.129C279.702 62.0082 283.326 65.7223 283.308 70.7212L283.215 96.7229C283.202 100.417 280.851 103.396 277.968 103.373L257.594 101.422C256.734 102.684 255.371 103.547 253.806 103.65C251.067 103.831 248.752 101.624 248.635 98.7204Z" fill="#9B616A"/>
<path d="M270.845 62.9369L271.822 86.4856L285.409 85.3049L283.007 60.813" fill="#CACACB"/>
<path d="M0 235.346C0 235.666 0.200043 235.929 0.455112 235.929H303.545C303.795 235.929 304 235.672 304 235.346C304 235.019 303.8 234.762 303.545 234.762H0.455112C0.205052 234.762 0 235.019 0 235.346Z" fill="#2F2E43"/>
<path d="M249.114 29.2063H171.345C169.205 29.2063 167.469 31.4295 167.469 34.172V34.172C167.469 36.9144 169.205 39.1376 171.345 39.1376H249.114C251.255 39.1376 252.99 36.9144 252.99 34.172C252.99 31.4295 251.255 29.2063 249.114 29.2063Z" fill="#BA68C8"/>
<path d="M249.114 69.572H188.099C185.958 69.572 184.223 71.7952 184.223 74.5377V74.5377C184.223 77.2801 185.958 79.5033 188.099 79.5033H249.114C251.255 79.5033 252.99 77.2801 252.99 74.5377C252.99 71.7952 251.255 69.572 249.114 69.572Z" fill="#BA68C8"/>
<path d="M237.611 95.8418H249.114C251.255 95.8418 252.99 98.065 252.99 100.807C252.99 103.55 251.255 105.773 249.114 105.773H237.611C235.471 105.773 233.735 103.55 233.735 100.807C233.735 98.065 235.471 95.8418 237.611 95.8418Z" fill="#BA68C8"/>
<path d="M129.335 56.7576H71.3203C69.1797 56.7576 67.4443 58.9808 67.4443 61.7232V61.7232C67.4443 64.4657 69.1797 66.6889 71.3203 66.6889H129.335C131.475 66.6889 133.211 64.4657 133.211 61.7232C133.211 58.9808 131.475 56.7576 129.335 56.7576Z" fill="#BA68C8"/>
<path d="M71.3203 82.3865H88.3245C90.4651 82.3865 92.2004 84.6097 92.2004 87.3521C92.2004 90.0946 90.4651 92.3178 88.3245 92.3178H71.3203C69.1797 92.3178 67.4443 90.0946 67.4443 87.3521C67.4443 84.6097 69.1797 82.3865 71.3203 82.3865Z" fill="#BA68C8"/>
<path d="M249.114 43.3022H193.601C191.46 43.3022 189.725 45.5254 189.725 48.2679V48.2679C189.725 51.0104 191.46 53.2336 193.601 53.2336H249.114C251.255 53.2336 252.99 51.0104 252.99 48.2679C252.99 45.5254 251.255 43.3022 249.114 43.3022Z" fill="#BA68C8"/>
<path d="M4.45646 209.836L9.58594 214.681L13.3675 208.11L8.23804 203.265L4.45646 209.836Z" fill="#E8989B"/>
<path d="M0.466289 213.984C0.289382 213.115 0.344933 212.383 0.63147 211.809C0.959194 211.153 1.58999 210.712 2.50622 210.5C2.63422 210.31 4.22672 207.971 4.83901 207.861C4.88589 207.7 5.21319 206.645 5.84039 206.352C6.13584 206.213 6.45202 206.269 6.78018 206.516L6.79446 206.527L6.79249 206.548C6.7899 206.576 6.54705 209.32 7.75176 210.718C8.44245 211.52 9.47297 211.734 10.8149 211.354C10.8865 211.3 11.8404 210.193 12.4685 209.458L12.4936 209.428L16.8389 220.906L20.1399 226.293C20.5547 226.97 20.566 227.927 20.1674 228.62C19.8274 229.21 19.244 229.504 18.6811 229.367L15.9587 228.707C14.8211 228.431 13.7272 227.819 12.7953 226.939L1.8918 216.641C1.18538 215.974 0.679111 215.03 0.466289 213.984Z" fill="#090814"/>
<path d="M62.6897 228.573H69.0625V220.409H62.6897V228.573Z" fill="#E8989B"/>
<path d="M61.3995 234.945C60.8544 234.38 60.5602 233.749 60.525 233.069C60.4848 232.291 60.7884 231.457 61.4274 230.589C61.4428 230.34 61.6411 227.246 62.083 226.692C62.046 226.527 61.8209 225.429 62.1899 224.716C62.3637 224.38 62.6439 224.184 63.0227 224.134L63.0392 224.132L63.0474 224.151C63.058 224.175 64.1334 226.568 65.751 226.778C66.6784 226.898 67.607 226.287 68.5108 224.961C68.5433 224.863 68.7987 223.247 68.9635 222.177L68.9701 222.135L77.784 228.07L82.9361 229.896C83.5836 230.126 84.0359 230.887 84.0359 231.748C84.0359 232.482 83.7022 233.162 83.1859 233.48L80.6886 235.018C79.6451 235.66 78.4816 236 77.3237 236H63.7775C62.8999 236 62.0553 235.625 61.3995 234.945Z" fill="#090814"/>
<path d="M30.2278 90.8201H60.7702L70.951 221.455H60.7702L45.0758 137.63L40.4086 161.28L14.7058 212.945L4.58252 200.316L26.4109 156.137L30.2278 90.8201Z" fill="#090814"/>
<path d="M39.4033 17.1614C39.4033 9.8309 44.0418 3.88843 49.7635 3.88843C55.4854 3.88843 60.1238 9.8309 60.1238 17.1614C60.1238 23.1064 57.0728 28.1379 52.8675 29.8277L50.8647 46.7852L40.6546 35.8846C40.6546 35.8846 42.8602 32.2853 44.0432 28.2268C41.2474 25.8497 39.4033 21.7822 39.4033 17.1614Z" fill="#E8989B"/>
<path d="M44.3301 28.6311C44.3301 28.6311 42.3546 15.8266 45.2098 17.3507C48.0649 18.8748 47.3009 21.4512 47.3009 21.4512L50.0371 16.2693V10.3254L51.8216 7.73439L59.4353 11.8494C59.4353 11.8494 63.48 -3.3915 51.9405 1.4856C51.9405 1.4856 42.0665 -3.69633 39.2114 5.29584C32.4424 25.5524 44.3301 28.6311 44.3301 28.6311Z" fill="#090814"/>
<path d="M30.3327 91.6816L57.4084 91.8354C59.6626 91.9812 61.5216 90.265 61.3078 88.2356L56.177 39.5269L47.0019 33.3661C45.0663 32.0663 42.6944 32.5472 41.1665 34.549L35.7294 41.6726C34.3033 43.5411 33.3869 45.6872 33.0552 47.9358L30.5168 80.1832C30.35 81.3137 30.4931 82.464 30.9335 83.5331L31.9293 85.9501C32.9849 88.5121 27.3104 91.4862 30.3327 91.6816Z" fill="#E0E0E0"/>
<path d="M63.1728 97.4785L54.7837 90.4058L58.007 84.1306L66.3961 91.2033C67.8529 90.7882 69.5615 91.1742 71.056 92.4342C73.671 94.6388 74.6363 98.6736 73.2122 101.446C71.788 104.219 68.5137 104.679 65.8987 102.474C64.4042 101.214 63.4516 99.3567 63.1728 97.4785Z" fill="#E8989B"/>
<path d="M37.8472 56.216L40.4809 82.9699L57.6507 96.6705L65.426 86.8883L48.7054 75.2823L51.2179 43.718" fill="#E0E0E0"/>
</g>
<defs>
<clipPath id="clip0_154_61">
<rect width="304" height="236" fill="white"/>
</clipPath>
</defs>
</svg>
