<svg width="176" height="71" viewBox="0 0 176 71" fill="none" xmlns="http://www.w3.org/2000/svg">
<path d="M32.92 28.16C32.92 30.4267 32.3333 32.5067 31.16 34.4C29.9867 36.2933 28.28 37.84 26.04 39.04C23.8 40.24 21.1333 40.9467 18.04 41.16L16.32 50.8C15.6533 54.5067 13.84 56.36 10.88 56.36C9.25333 56.36 7.74667 55.88 6.36 54.92C5 53.96 3.90667 52.4933 3.08 50.52C2.25333 48.5467 1.84 46.12 1.84 43.24C1.84 37.8267 2.70667 33.24 4.44 29.48C6.2 25.6933 8.54667 22.8667 11.48 21C14.44 19.1067 17.6933 18.16 21.24 18.16C23.7467 18.16 25.8667 18.6 27.6 19.48C29.36 20.36 30.68 21.56 31.56 23.08C32.4667 24.5733 32.92 26.2667 32.92 28.16ZM18.76 37.04C24.2267 36.3467 26.96 33.5067 26.96 28.52C26.96 26.76 26.3733 25.3333 25.2 24.24C24.0533 23.12 22.2667 22.56 19.84 22.56C17.0933 22.56 14.6933 23.4267 12.64 25.16C10.6133 26.8933 9.04 29.3067 7.92 32.4C6.82667 35.4667 6.28 38.9733 6.28 42.92C6.28 44.5733 6.44 46.04 6.76 47.32C7.10667 48.6 7.53333 49.6 8.04 50.32C8.57333 51.0133 9.08 51.36 9.56 51.36C10.2267 51.36 10.7333 50.44 11.08 48.6L12.4 41.04C11.36 40.88 10.9067 40.8133 11.04 40.84C10.24 40.7067 9.72 40.4667 9.48 40.12C9.24 39.7467 9.12 39.28 9.12 38.72C9.12 38.1333 9.28 37.6667 9.6 37.32C9.94667 36.9733 10.4133 36.8 11 36.8C11.2667 36.8 11.4667 36.8133 11.6 36.84C12.24 36.9467 12.7333 37.0133 13.08 37.04C13.4267 34.96 13.92 32.1733 14.56 28.68C14.72 27.7733 15.08 27.1333 15.64 26.76C16.2267 26.36 16.9067 26.16 17.68 26.16C18.56 26.16 19.1867 26.3333 19.56 26.68C19.96 27 20.16 27.52 20.16 28.24C20.16 28.6667 20.1333 29.0133 20.08 29.28L18.76 37.04ZM36.9647 30.72C35.8447 30.72 35.0047 30.4667 34.4447 29.96C33.8847 29.4267 33.6047 28.6933 33.6047 27.76C33.6047 26.8267 33.9647 26.0533 34.6847 25.44C35.4314 24.8 36.3514 24.48 37.4447 24.48C38.4314 24.48 39.2314 24.72 39.8447 25.2C40.458 25.68 40.7647 26.36 40.7647 27.24C40.7647 28.3067 40.418 29.16 39.7247 29.8C39.0314 30.4133 38.1114 30.72 36.9647 30.72ZM36.6447 52.2C34.9114 52.2 33.6447 51.5867 32.8447 50.36C32.0714 49.1333 31.6847 47.5067 31.6847 45.48C31.6847 44.28 31.8314 42.7467 32.1247 40.88C32.4447 38.9867 32.8447 37.2267 33.3247 35.6C33.5647 34.7467 33.8847 34.16 34.2847 33.84C34.6847 33.52 35.3247 33.36 36.2047 33.36C37.5647 33.36 38.2447 33.8133 38.2447 34.72C38.2447 35.3867 37.9914 36.9333 37.4847 39.36C36.8447 42.2933 36.5247 44.28 36.5247 45.32C36.5247 46.12 36.6314 46.7333 36.8447 47.16C37.058 47.5867 37.418 47.8 37.9247 47.8C38.4047 47.8 39.0047 47.4667 39.7247 46.8C40.4447 46.1333 41.4047 45.08 42.6047 43.64C42.9247 43.2667 43.2847 43.08 43.6847 43.08C44.0314 43.08 44.298 43.24 44.4847 43.56C44.698 43.88 44.8047 44.32 44.8047 44.88C44.8047 45.9467 44.5514 46.7733 44.0447 47.36C41.4047 50.5867 38.938 52.2 36.6447 52.2ZM44.4084 52.2C43.3951 52.2 42.6751 51.6667 42.2484 50.6C41.8484 49.5333 41.6484 47.8267 41.6484 45.48C41.6484 42.0133 42.1418 38.72 43.1284 35.6C43.3684 34.8267 43.7551 34.2667 44.2884 33.92C44.8484 33.5467 45.6218 33.36 46.6084 33.36C47.1418 33.36 47.5151 33.4267 47.7284 33.56C47.9418 33.6933 48.0484 33.9467 48.0484 34.32C48.0484 34.7467 47.8484 35.7067 47.4484 37.2C47.1818 38.2667 46.9684 39.2 46.8084 40C46.6484 40.8 46.5151 41.7867 46.4084 42.96C47.2884 40.6667 48.2751 38.8 49.3684 37.36C50.4618 35.92 51.5284 34.8933 52.5684 34.28C53.6351 33.6667 54.6084 33.36 55.4884 33.36C57.2218 33.36 58.0884 34.2267 58.0884 35.96C58.0884 37 57.7951 38.88 57.2084 41.6C56.7018 43.92 56.4484 45.4533 56.4484 46.2C56.4484 47.2667 56.8351 47.8 57.6084 47.8C58.1418 47.8 58.7684 47.48 59.4884 46.84C60.2351 46.1733 61.2218 45.1067 62.4484 43.64C62.7684 43.2667 63.1284 43.08 63.5284 43.08C63.8751 43.08 64.1418 43.24 64.3284 43.56C64.5418 43.88 64.6484 44.32 64.6484 44.88C64.6484 45.9467 64.3951 46.7733 63.8884 47.36C62.7418 48.7733 61.5018 49.9333 60.1684 50.84C58.8618 51.7467 57.3684 52.2 55.6884 52.2C54.3284 52.2 53.3018 51.8133 52.6084 51.04C51.9151 50.24 51.5684 49.0933 51.5684 47.6C51.5684 46.8533 51.7551 45.52 52.1284 43.6C52.4751 41.92 52.6484 40.76 52.6484 40.12C52.6484 39.6933 52.5018 39.48 52.2084 39.48C51.8618 39.48 51.3684 39.9333 50.7284 40.84C50.1151 41.72 49.4751 42.8933 48.8084 44.36C48.1684 45.8267 47.6484 47.3733 47.2484 49C46.9551 50.2533 46.6084 51.1067 46.2084 51.56C45.8351 51.9867 45.2351 52.2 44.4084 52.2ZM81.8922 43.16C82.2389 43.16 82.5055 43.3333 82.6922 43.68C82.9055 44 83.0122 44.4133 83.0122 44.92C83.0122 45.5333 82.9189 46.0133 82.7322 46.36C82.5455 46.7067 82.2522 47.0133 81.8522 47.28C79.5589 48.8267 77.8789 49.9733 76.8122 50.72L74.2522 52.44C73.2389 57.96 71.9055 62.2933 70.2522 65.44C68.6255 68.6133 66.5455 70.2 64.0122 70.2C62.6522 70.2 61.5455 69.7733 60.6922 68.92C59.8389 68.0933 59.4122 67 59.4122 65.64C59.4122 63.7467 60.1589 61.7067 61.6522 59.52C63.1455 57.36 65.9455 54.6933 70.0522 51.52L70.2922 49.96C69.8389 50.68 69.2389 51.24 68.4922 51.64C67.7722 52.0133 67.0522 52.2 66.3322 52.2C64.6789 52.2 63.3589 51.6 62.3722 50.4C61.3855 49.2 60.8922 47.6267 60.8922 45.68C60.8922 43.5467 61.3855 41.5333 62.3722 39.64C63.3589 37.72 64.6655 36.1867 66.2922 35.04C67.9455 33.8667 69.6922 33.28 71.5322 33.28C72.1189 33.28 72.5055 33.4 72.6922 33.64C72.9055 33.8533 73.0789 34.2533 73.2122 34.84C73.7189 34.7333 74.3055 34.68 74.9722 34.68C75.6389 34.68 76.1055 34.7867 76.3722 35C76.6655 35.1867 76.8122 35.5733 76.8122 36.16C76.8122 36.48 76.7989 36.7333 76.7722 36.92C76.6655 37.7467 76.3322 39.84 75.7722 43.2C75.6655 43.84 75.5455 44.5467 75.4122 45.32C75.3055 46.0667 75.1855 46.8667 75.0522 47.72C77.1055 46.12 79.0789 44.7067 80.9722 43.48C81.3189 43.2667 81.6255 43.16 81.8922 43.16ZM67.7722 48.16C68.3855 48.16 68.9722 47.7867 69.5322 47.04C70.0922 46.2933 70.4922 45.2267 70.7322 43.84L72.0122 37C70.9189 37.0267 69.9055 37.4533 68.9722 38.28C68.0389 39.08 67.2922 40.1467 66.7322 41.48C66.1722 42.8133 65.8922 44.2267 65.8922 45.72C65.8922 46.5467 66.0522 47.16 66.3722 47.56C66.7189 47.96 67.1855 48.16 67.7722 48.16ZM64.4522 66.32C65.1189 66.32 65.8655 65.52 66.6922 63.92C67.5455 62.32 68.3589 59.7733 69.1322 56.28C67.0789 58.04 65.5989 59.6267 64.6922 61.04C63.7855 62.4533 63.3322 63.6933 63.3322 64.76C63.3322 65.2133 63.4122 65.5867 63.5722 65.88C63.7589 66.1733 64.0522 66.32 64.4522 66.32ZM87.9128 52.2C86.9261 52.2 86.2195 51.9867 85.7928 51.56C85.3661 51.1067 85.1528 50.2667 85.1528 49.04C85.1528 48.2133 85.2328 47.16 85.3928 45.88C85.5795 44.5733 85.8728 42.7867 86.2728 40.52C86.9661 36.3333 87.5128 32.7067 87.9128 29.64C88.1528 27.72 88.2728 26.12 88.2728 24.84C88.2728 23.64 87.8328 23.04 86.9528 23.04C86.2595 23.04 85.4195 23.4 84.4328 24.12C83.4728 24.8133 82.4061 25.9333 81.2328 27.48C80.8595 27.9867 80.4461 28.24 79.9928 28.24C79.6195 28.24 79.2861 28.0667 78.9928 27.72C78.7261 27.3467 78.5928 26.9333 78.5928 26.48C78.5928 26.0533 78.6728 25.6267 78.8328 25.2C79.0195 24.7467 79.3128 24.24 79.7128 23.68C80.9928 21.8933 82.4195 20.52 83.9928 19.56C85.5661 18.5733 87.1395 18.08 88.7128 18.08C90.1795 18.08 91.2995 18.5467 92.0728 19.48C92.8728 20.4133 93.2728 21.7733 93.2728 23.56C93.2728 24.28 93.2061 25.1333 93.0728 26.12C92.9395 27.08 92.8195 27.8667 92.7128 28.48C92.6061 29.0933 92.5261 29.52 92.4728 29.76C93.9928 25.4133 95.6995 22.3867 97.5928 20.68C99.4861 18.9467 101.566 18.08 103.833 18.08C105.566 18.08 106.926 18.6933 107.913 19.92C108.926 21.1467 109.433 22.88 109.433 25.12C109.433 26 109.313 27.0933 109.073 28.4C110.406 24.72 111.966 22.08 113.753 20.48C115.539 18.88 117.593 18.08 119.913 18.08C121.779 18.08 123.206 18.68 124.193 19.88C125.206 21.08 125.713 22.76 125.713 24.92C125.713 26.0933 125.539 27.52 125.193 29.2L122.753 40.64C122.486 41.9733 122.353 43.12 122.353 44.08C122.353 45.2 122.606 46.04 123.113 46.6C123.646 47.16 124.379 47.44 125.313 47.44C126.193 47.44 127.046 47.1467 127.873 46.56C128.726 45.9733 129.726 45 130.873 43.64C131.193 43.2667 131.553 43.08 131.953 43.08C132.299 43.08 132.566 43.24 132.753 43.56C132.966 43.88 133.073 44.32 133.073 44.88C133.073 45.92 132.819 46.7467 132.313 47.36C130.926 49.04 129.553 50.2667 128.193 51.04C126.833 51.8133 125.406 52.2 123.913 52.2C121.646 52.2 119.873 51.5333 118.593 50.2C117.313 48.84 116.673 47.0267 116.673 44.76C116.673 43.1867 116.993 40.9067 117.633 37.92L119.233 30.6C119.286 30.36 119.379 29.9333 119.513 29.32C119.646 28.7067 119.753 28.1333 119.833 27.6C119.913 27.04 119.953 26.4933 119.953 25.96C119.953 25.0267 119.766 24.3333 119.393 23.88C119.046 23.4 118.539 23.16 117.873 23.16C116.619 23.16 115.299 23.9733 113.913 25.6C112.553 27.2 111.246 29.8667 109.993 33.6C108.766 37.3333 107.766 42.1867 106.993 48.16C106.806 49.76 106.473 50.84 105.993 51.4C105.539 51.9333 104.793 52.2 103.753 52.2C102.846 52.2 102.179 51.9867 101.753 51.56C101.353 51.1333 101.153 50.3333 101.153 49.16C101.153 48.0667 101.299 46.64 101.593 44.88C101.886 43.0933 102.259 41 102.713 38.6C103.939 32.1467 104.553 27.9867 104.553 26.12C104.553 25.1067 104.353 24.36 103.953 23.88C103.579 23.4 103.006 23.16 102.233 23.16C100.926 23.16 99.5795 23.9067 98.1928 25.4C96.8061 26.8667 95.4461 29.4933 94.1128 33.28C92.8061 37.04 91.7128 42.1333 90.8328 48.56C90.6461 49.92 90.3661 50.8667 89.9928 51.4C89.6461 51.9333 88.9528 52.2 87.9128 52.2ZM144.17 44.28C144.516 44.28 144.783 44.44 144.97 44.76C145.183 45.08 145.29 45.52 145.29 46.08C145.29 47.04 145.063 47.8667 144.61 48.56C143.863 49.7067 142.876 50.6 141.65 51.24C140.45 51.88 139.01 52.2 137.33 52.2C134.77 52.2 132.783 51.44 131.37 49.92C129.956 48.3733 129.25 46.2933 129.25 43.68C129.25 41.84 129.636 40.1333 130.41 38.56C131.183 36.96 132.25 35.6933 133.61 34.76C134.996 33.8267 136.556 33.36 138.29 33.36C139.836 33.36 141.076 33.8267 142.01 34.76C142.943 35.6667 143.41 36.9067 143.41 38.48C143.41 40.32 142.743 41.9067 141.41 43.24C140.103 44.5467 137.863 45.5867 134.69 46.36C135.33 47.5867 136.41 48.2 137.93 48.2C139.023 48.2 139.916 47.9467 140.61 47.44C141.33 46.9333 142.156 46.08 143.09 44.88C143.41 44.48 143.77 44.28 144.17 44.28ZM137.61 37.28C136.623 37.28 135.783 37.8533 135.09 39C134.423 40.1467 134.09 41.5333 134.09 43.16V43.24C135.663 42.8667 136.903 42.3067 137.81 41.56C138.716 40.8133 139.17 39.9467 139.17 38.96C139.17 38.4533 139.023 38.0533 138.73 37.76C138.463 37.44 138.09 37.28 137.61 37.28Z" fill="#6B1779"/>
<path d="M162.02 30.2546C161.221 29.8738 160.314 29.7355 159.426 29.8591C158.538 29.9826 157.714 30.362 157.071 30.9436C156.285 31.6748 155.844 32.666 155.844 33.6995C155.844 34.7329 156.285 35.7241 157.071 36.4554L161.027 40.1992C161.157 40.321 161.312 40.4177 161.482 40.4837C161.652 40.5497 161.835 40.5837 162.02 40.5837C162.204 40.5837 162.387 40.5497 162.557 40.4837C162.728 40.4177 162.882 40.321 163.012 40.1992L166.969 36.5204C167.754 35.7891 168.195 34.7979 168.195 33.7645C168.195 32.731 167.754 31.7398 166.969 31.0086C166.333 30.4163 165.513 30.0249 164.625 29.8896C163.737 29.7543 162.825 29.882 162.02 30.2546ZM164.984 34.6224L162.02 37.3783L159.056 34.6224C158.925 34.5016 158.821 34.3578 158.75 34.1994C158.679 34.041 158.642 33.8711 158.642 33.6995C158.642 33.5279 158.679 33.358 158.75 33.1996C158.821 33.0411 158.925 32.8974 159.056 32.7765C159.318 32.5344 159.672 32.3985 160.041 32.3985C160.411 32.3985 160.765 32.5344 161.027 32.7765C161.157 32.8984 161.312 32.9951 161.482 33.0611C161.652 33.1271 161.835 33.161 162.02 33.161C162.204 33.161 162.387 33.1271 162.557 33.0611C162.728 32.9951 162.882 32.8984 163.012 32.7765C163.274 32.5344 163.629 32.3985 163.998 32.3985C164.367 32.3985 164.722 32.5344 164.984 32.7765C165.115 32.8974 165.219 33.0411 165.29 33.1996C165.361 33.358 165.397 33.5279 165.397 33.6995C165.397 33.8711 165.361 34.041 165.29 34.1994C165.219 34.3578 165.115 34.5016 164.984 34.6224ZM162.02 22C160.184 22 158.366 22.3362 156.67 22.9895C154.974 23.6428 153.432 24.6003 152.134 25.8074C149.512 28.2453 148.039 31.5518 148.039 34.9994C148.027 38.0012 149.145 40.9123 151.199 43.2281L148.403 45.8279C148.209 46.0107 148.077 46.2429 148.025 46.4951C147.973 46.7472 148.002 47.0082 148.109 47.2449C148.225 47.4788 148.414 47.6753 148.65 47.8096C148.887 47.9438 149.161 48.0097 149.437 47.9988H162.02C165.728 47.9988 169.283 46.6293 171.905 44.1914C174.527 41.7535 176 38.4471 176 34.9994C176 31.5518 174.527 28.2453 171.905 25.8074C169.283 23.3696 165.728 22 162.02 22ZM162.02 45.399H152.807L154.107 44.19C154.367 43.9465 154.513 43.617 154.513 43.2736C154.513 42.9301 154.367 42.6007 154.107 42.3571C152.276 40.6568 151.136 38.419 150.881 36.0248C150.626 33.6306 151.272 31.2283 152.708 29.2271C154.144 27.2258 156.282 25.7495 158.757 25.0496C161.233 24.3498 163.893 24.4696 166.284 25.3888C168.675 26.308 170.65 27.9697 171.871 30.0907C173.092 32.2117 173.485 34.6608 172.982 37.0208C172.479 39.3808 171.112 41.5057 169.113 43.0334C167.114 44.5611 164.607 45.3971 162.02 45.399Z" fill="#6B1779"/>
</svg>
